<svg xmlns="http://www.w3.org/2000/svg" width="45" height="28" viewBox="0 0 45 28">
    <g fill="none" fill-rule="evenodd">
        <g fill-rule="nonzero">
            <g>
                <g>
                    <g>
                        <g fill="#D8D8D8">
                            <path d="M41.05 8.225l.625-.95H44c.54-.089.95-.53 1-1.075-.064-.627-.594-1.103-1.225-1.1h-2.7c-.406 0-.776.233-.95.6l-1.3 1.9H37.5c-.562-4.636-4.73-7.97-9.375-7.5h-11.1C11.725.1 8.2 3.025 7.65 7.6H6.2L5 5.7c-.191-.411-.625-.653-1.075-.6h-2.7C.603 5.095.076 5.558 0 6.175c.05.544.46.986 1 1.075h2.325l.625.95C1.35 9.5 0 12.6 0 17.6v8.075c.007.522.222 1.019.598 1.38.375.362.88.558 1.402.545h4.55c1.35 0 3.45 0 3.45-2.5h25c0 2.5 2.125 2.5 3.5 2.5h4.55c1.067 0 1.936-.858 1.95-1.925V17.6c0-5-1.325-8.125-3.95-9.375z" transform="translate(-130 -1126) translate(32 1048) translate(0 66) translate(98 12)"/>
                        </g>
                        <g fill="#D5001C" stroke="#D5001C" stroke-width="2">
                            <path d="M4.914 11.34L0 5.67 1.228 5.67 4.906 10.012 13.514 0 14.742 0z" transform="translate(-130 -1126) translate(32 1048) translate(0 66) translate(98 12) translate(15 7.8)"/>
                        </g>
                    </g>
                </g>
            </g>
        </g>
    </g>
</svg>
