<?xml version="1.0" encoding="UTF-8"?>
<svg width="29px" height="23px" viewBox="0 0 29 23" version="1.1" xmlns="http://www.w3.org/2000/svg" xmlns:xlink="http://www.w3.org/1999/xlink">
    <title>image.min.4126facf3cb3d99e45f1a37f30e99f34</title>
    <g id="Sales-Dashboard" stroke="none" stroke-width="1" fill="none" fill-rule="evenodd">
        <g id="SD_06.04_Delivery_Checklist" transform="translate(-68.000000, -978.000000)" fill="#000000" fill-rule="nonzero">
            <g id="1" transform="translate(0.000000, 524.000000)">
                <g id="02" transform="translate(0.000000, 359.000000)">
                    <g id="Form" transform="translate(32.000000, 59.000000)">
                        <g id="Icons" transform="translate(0.000000, 36.000000)">
                            <g id="image.min.4126facf3cb3d99e45f1a37f30e99f34" transform="translate(36.000000, 0.000000)">
                                <path d="M29,18.0714286 L29,0 L4.83333333,0 L4.83333333,4.92857143 L0,4.92857143 L0,23 L24.1666667,23 L24.1666667,18.0714286 L29,18.0714286 Z M6.44444444,1.64285714 L27.3888889,1.64285714 L27.3888889,16.4285714 L24.1666667,16.4285714 L24.1666667,4.92857143 L6.44444444,4.92857143 L6.44444444,1.64285714 Z M4.83333333,21.3571429 L8.05555556,17.25 L11.6,20.5357143 L16.1111111,13.1428571 L21.2666667,21.3571429 L4.83333333,21.3571429 Z M16.1111111,9.85714286 L11.2777778,18.0714286 L8.05555556,14.7857143 L2.9,21.3571429 L1.61111111,21.3571429 L1.61111111,6.57142857 L22.5555556,6.57142857 L22.5555556,20.355 L16.1111111,9.85714286 Z" id="Shape"></path>
                                <circle id="Oval" cx="4.5" cy="9.5" r="1.5"></circle>
                            </g>
                        </g>
                    </g>
                </g>
            </g>
        </g>
    </g>
</svg>