<svg xmlns="http://www.w3.org/2000/svg" width="75" height="75" viewBox="0 0 75 75">
    <g fill="none" fill-rule="evenodd">
        <g fill-rule="nonzero">
            <g>
                <g>
                    <g>
                        <g fill="#000">
                            <path d="M47.892 9.596l.729-1.108h2.712c.63-.104 1.11-.62 1.167-1.255-.075-.732-.693-1.287-1.43-1.283h-3.15c-.473 0-.904.272-1.108.7l-1.516 2.217H43.75c-.655-5.408-5.517-9.298-10.938-8.75h-12.95c-6.183 0-10.295 3.412-10.937 8.75H7.233l-1.4-2.217c-.223-.48-.728-.762-1.254-.7H1.43C.703 5.945.09 6.484 0 7.204c.058.635.538 1.15 1.167 1.254h2.712l.73 1.109C1.574 11.083 0 14.7 0 20.533v9.421c.008.609.259 1.189.697 1.61.439.423 1.028.652 1.636.636h5.309c1.575 0 4.025 0 4.025-2.917h29.166c0 2.917 2.48 2.917 4.084 2.917h5.308c1.245 0 2.259-1 2.275-2.246v-9.42c0-5.834-1.546-9.48-4.608-10.938zm-28.03-6.563h12.834c3.845-.582 7.454 2.005 8.137 5.834h-29.02c.612-3.675 3.5-5.834 8.05-5.834zm29.721 26.25h-4.666c-.389.027-.779.027-1.167 0v-1.458c0-.805-.653-1.458-1.458-1.458h-4.375c0-1.611-1.306-2.917-2.917-2.917H17.5c-1.61 0-2.917 1.306-2.917 2.917h-4.345c-.806 0-1.459.653-1.459 1.458v1.458c-.379.026-.759.026-1.137 0H2.917v-8.75c0-7.7 2.654-8.75 5.22-8.75h36.225c2.567 0 5.221 1.05 5.221 8.75v8.75z" transform="translate(-474 -246) translate(318 194) matrix(-1 0 0 1 388 0) translate(157 52) translate(11 21)"/>
                            <path d="M45.383 14.7h-3.296c-2.303 0-4.17 1.867-4.17 4.17 0 .114.091.205.204.205h7.991c.311-.016.555-.272.555-.583v-1.867c0-1.633-.234-1.925-1.284-1.925zm-34.941 0H7.146c-1.05 0-1.254.292-1.254 1.925v1.867c0 .322.26.583.583.583h7.933c.102-.015.176-.102.175-.204 0-2.292-1.85-4.155-4.141-4.171z" transform="translate(-474 -246) translate(318 194) matrix(-1 0 0 1 388 0) translate(157 52) translate(11 21)"/>
                        </g>
                        <g fill="#D5001C">
                            <path d="M37.5 0C16.79 0 0 16.79 0 37.5S16.79 75 37.5 75 75 58.21 75 37.5 58.21 0 37.5 0zM4.167 37.5C4.167 19.09 19.09 4.167 37.5 4.167c8.108-.02 15.94 2.947 22 8.333l-47 47c-5.386-6.06-8.353-13.892-8.333-22zM37.5 70.833c-8.108.02-15.94-2.947-22-8.333l47-47c5.386 6.06 8.353 13.892 8.333 22 0 18.41-14.924 33.333-33.333 33.333z" transform="translate(-474 -246) translate(318 194) matrix(-1 0 0 1 388 0) translate(157 52)"/>
                        </g>
                    </g>
                </g>
            </g>
        </g>
    </g>
</svg>
