<svg xmlns="http://www.w3.org/2000/svg" width="12" height="12" viewBox="0 0 12 12">
    <g fill="none" fill-rule="evenodd">
        <g fill="#000" fill-rule="nonzero">
            <g>
                <g>
                    <path d="M5.333 2.667h1.334V4H5.333V2.667zm0 2.666h1.334v4H5.333v-4z" transform="translate(-332 -558) translate(332 513) translate(0 45)"/>
                    <path d="M6 0C2.686 0 0 2.686 0 6s2.686 6 6 6 6-2.686 6-6-2.686-6-6-6zm0 11.333C3.054 11.333.667 8.946.667 6S3.054.667 6 .667 11.333 3.054 11.333 6c0 1.414-.562 2.771-1.562 3.771S7.414 11.333 6 11.333z" transform="translate(-332 -558) translate(332 513) translate(0 45)"/>
                </g>
            </g>
        </g>
    </g>
</svg>
